<svg width="20" height="20" viewBox="0 0 20 20" fill="none" xmlns="http://www.w3.org/2000/svg">
<circle cx="10" cy="10" r="10" fill="#C42B2B"/>
<path d="M5.83335 9.16668V10.8333H14.1667V9.16668H5.83335ZM10 1.66668C5.40002 1.66668 1.66669 5.40001 1.66669 10C1.66669 14.6 5.40002 18.3333 10 18.3333C14.6 18.3333 18.3334 14.6 18.3334 10C18.3334 5.40001 14.6 1.66668 10 1.66668ZM10 16.6667C6.32502 16.6667 3.33335 13.675 3.33335 10C3.33335 6.32501 6.32502 3.33334 10 3.33334C13.675 3.33334 16.6667 6.32501 16.6667 10C16.6667 13.675 13.675 16.6667 10 16.6667Z" fill="white"/>
</svg>
