<svg width="93" height="93" viewBox="0 0 93 93" fill="none" xmlns="http://www.w3.org/2000/svg">
<path d="M78.6797 14.1367C69.6224 5.20182 58.7292 0.734375 46 0.734375C33.2708 0.734375 22.4388 5.26302 13.5039 14.3203C4.56901 23.3776 0.101562 34.2708 0.101562 47C0.101562 59.7292 4.56901 70.5612 13.5039 79.4961C22.4388 88.431 33.2708 92.8984 46 92.8984C58.7292 92.8984 69.6224 88.3698 78.6797 79.3125C87.737 70.2552 92.2656 59.362 92.2656 46.6328C92.2656 34.026 87.737 23.194 78.6797 14.1367ZM74.6406 75.2734C66.8073 83.1068 57.2604 87.0234 46 87.0234C34.7396 87.0234 25.2539 83.168 17.543 75.457C9.83203 67.7461 5.97656 58.2604 5.97656 47C5.97656 35.862 9.89323 26.3151 17.7266 18.3594C25.6823 10.526 35.2292 6.60938 46.3672 6.60938C57.6276 6.60938 67.1745 10.526 75.0078 18.3594C82.8411 26.1927 86.7578 35.7396 86.7578 47C86.6354 58.138 82.5964 67.5625 74.6406 75.2734ZM48.9375 36.168C48.3255 35.556 47.5911 35.25 46.7344 35.25C45.8776 35.25 45.1432 35.4948 44.5312 35.9844C43.9193 36.5964 43.6133 37.3919 43.6133 38.3711V73.2539C43.6133 73.9883 43.9193 74.6615 44.5312 75.2734C45.1432 76.0078 45.8776 76.375 46.7344 76.375C48.8151 76.375 49.8555 75.3346 49.8555 73.2539V38.3711C49.8555 37.6367 49.5495 36.9023 48.9375 36.168ZM49.8555 29.1914C50.7122 28.457 51.1406 27.4779 51.1406 26.2539C51.1406 25.0299 50.7122 23.9896 49.8555 23.1328C48.9987 22.276 47.9583 21.8477 46.7344 21.8477C45.5104 21.8477 44.4701 22.276 43.6133 23.1328C42.8789 23.9896 42.5117 25.0299 42.5117 26.2539C42.5117 27.4779 42.8789 28.457 43.6133 29.1914C44.4701 30.0482 45.5104 30.4766 46.7344 30.4766C47.9583 30.4766 48.9987 30.0482 49.8555 29.1914Z" fill="#008F73"/>
</svg>
