<svg width="22" height="17" viewBox="0 0 22 17" fill="none" xmlns="http://www.w3.org/2000/svg">
<path fill-rule="evenodd" clip-rule="evenodd" d="M16.5 0C17.67 0 18.89 0.15 20 0.5C20.75 0.75 21.4 1.05 22 1.5V16.1C22 16.35 21.75 16.6 21.5 16.6C21.4 16.6 21.35 16.6 21.25 16.55C19.85 15.8 18.15 15.5 16.5 15.5C14.8 15.5 12.35 16.15 11 17C9.55 15.9 7.45 15.5 5.5 15.5C4.05 15.5 2.1 15.95 0.75 16.6C0.7 16.6 0.6625 16.6125 0.625 16.625C0.5875 16.6375 0.55 16.65 0.5 16.65C0.25 16.65 0 16.4 0 16.15V1.5C1.45 0.4 3.55 0 5.5 0C7.45 0 9.55 0.4 11 1.5C12.45 0.4 14.55 0 16.5 0ZM16.5 13.5C17.7 13.5 18.9 13.65 20 14V2.5C18.9 2.15 17.7 2 16.5 2C14.8 2 12.35 2.65 11 3.5V15C12.35 14.15 14.8 13.5 16.5 13.5Z" fill="#ABAABA"/>
</svg>
