<svg width="93" height="93" viewBox="0 0 93 93" fill="none" xmlns="http://www.w3.org/2000/svg">
<path d="M78.6797 14.1367C69.6224 5.20182 58.7292 0.734375 46 0.734375C33.2708 0.734375 22.4388 5.26302 13.5039 14.3203C4.56901 23.3776 0.101562 34.2708 0.101562 47C0.101562 59.7292 4.56901 70.5612 13.5039 79.4961C22.4388 88.431 33.2708 92.8984 46 92.8984C58.7292 92.8984 69.6224 88.3698 78.6797 79.3125C87.737 70.2552 92.2656 59.362 92.2656 46.6328C92.2656 34.026 87.737 23.194 78.6797 14.1367ZM74.6406 75.2734C66.8073 83.1068 57.2604 87.0234 46 87.0234C34.7396 87.0234 25.2539 83.168 17.543 75.457C9.83203 67.7461 5.97656 58.2604 5.97656 47C5.97656 35.862 9.89323 26.3151 17.7266 18.3594C25.6823 10.526 35.2292 6.60938 46.3672 6.60938C57.6276 6.60938 67.1745 10.526 75.0078 18.3594C82.8411 26.1927 86.7578 35.7396 86.7578 47C86.6354 58.138 82.5964 67.5625 74.6406 75.2734ZM27.457 32.3125L60.6875 65.543L64.9102 61.3203L31.6797 28.0898L27.457 32.3125ZM27.457 61.6875L31.6797 65.9102L64.9102 32.6797L60.6875 28.457L27.457 61.6875Z" fill="#E64646"/>
</svg>
