<svg width="20" height="20" viewBox="0 0 20 20" fill="none" xmlns="http://www.w3.org/2000/svg">
<path d="M20 10C20 15.5228 15.5228 20 10 20C4.47715 20 0 15.5228 0 10C0 4.47715 4.47715 0 10 0C15.5228 0 20 4.47715 20 10Z" fill="#FFAF4F"/>
<path d="M10 5V7.5L13.3333 4.16666L10 0.833328V3.33333C6.31668 3.33333 3.33334 6.31666 3.33334 10C3.33334 11.3083 3.71668 12.525 4.36668 13.55L5.58334 12.3333C5.20834 11.6417 5.00001 10.8417 5.00001 10C5.00001 7.24166 7.24168 5 10 5ZM15.6333 6.44999L14.4167 7.66666C14.7833 8.36666 15 9.15833 15 10C15 12.7583 12.7583 15 10 15V12.5L6.66668 15.8333L10 19.1667V16.6667C13.6833 16.6667 16.6667 13.6833 16.6667 10C16.6667 8.69166 16.2833 7.475 15.6333 6.44999V6.44999Z" fill="white"/>
</svg>
