<svg width="20" height="20" viewBox="0 0 20 20" fill="none" xmlns="http://www.w3.org/2000/svg">
<circle cx="10" cy="10" r="10" fill="#208C74"/>
<path d="M9.99166 1.66666C5.39166 1.66666 1.66666 5.4 1.66666 10C1.66666 14.6 5.39166 18.3333 9.99166 18.3333C14.6 18.3333 18.3333 14.6 18.3333 10C18.3333 5.4 14.6 1.66666 9.99166 1.66666ZM9.99999 16.6667C6.31666 16.6667 3.33332 13.6833 3.33332 10C3.33332 6.31666 6.31666 3.33333 9.99999 3.33333C13.6833 3.33333 16.6667 6.31666 16.6667 10C16.6667 13.6833 13.6833 16.6667 9.99999 16.6667Z" fill="white"/>
<path d="M9.58334 5.83334H8.33334V10.8333L12.7083 13.4583L13.3333 12.4333L9.58334 10.2083V5.83334Z" fill="white"/>
</svg>
